<svg version="1.1" viewBox="0.0 0.0 960.0 720.0" fill="none" stroke="none" stroke-linecap="square" stroke-miterlimit="10" xmlns:xlink="http://www.w3.org/1999/xlink" xmlns="http://www.w3.org/2000/svg"><clipPath id="p.0"><path d="m0 0l960.0 0l0 720.0l-960.0 0l0 -720.0z" clip-rule="nonzero"/></clipPath><g clip-path="url(#p.0)"><path fill="#000000" fill-opacity="0.0" d="m0 0l960.0 0l0 720.0l-960.0 0z" fill-rule="evenodd"/><path fill="#ffd966" d="m177.63718 314.27744c-10.3355255 55.88321 -56.05906 191.82501 -39.94226 238.59842c16.11679 46.773376 103.533676 61.837708 136.64304 42.041992c33.109375 -19.795715 2.6264343 -132.08661 62.013123 -160.81625c59.38672 -28.729675 233.8692 -36.087067 294.30707 -11.561707c60.437927 24.52539 35.210876 135.59012 68.32025 158.7139c33.109375 23.12384 120.52582 34.685486 130.33594 -19.97113c9.810181 -54.656586 33.45935 -250.68414 -71.47504 -307.96848c-104.93439 -57.284348 -461.4309 -45.89807 -558.1312 -35.737534c-96.70035 10.160538 -11.735352 40.81758 -22.070862 96.70079z" fill-rule="evenodd"/><path stroke="#000000" stroke-width="24.0" stroke-linejoin="round" stroke-linecap="butt" d="m177.63718 314.27744c-10.3355255 55.88321 -56.05906 191.82501 -39.94226 238.59842c16.11679 46.773376 103.533676 61.837708 136.64304 42.041992c33.109375 -19.795715 2.6264343 -132.08661 62.013123 -160.81625c59.38672 -28.729675 233.8692 -36.087067 294.30707 -11.561707c60.437927 24.52539 35.210876 135.59012 68.32025 158.7139c33.109375 23.12384 120.52582 34.685486 130.33594 -19.97113c9.810181 -54.656586 33.45935 -250.68414 -71.47504 -307.96848c-104.93439 -57.284348 -461.4309 -45.89807 -558.1312 -35.737534c-96.70035 10.160538 -11.735352 40.81758 -22.070862 96.70079z" fill-rule="evenodd"/><path fill="#000000" fill-opacity="0.0" d="m207.06824 258.04724l558.1417 0l0 101.95276l-558.1417 0z" fill-rule="evenodd"/><path fill="#000000" d="m302.91254 338.90973q-0.046875 1.421875 -0.796875 1.390625q-0.734375 -0.046875 -0.84375 -0.046875q-2.0 0 -4.21875 0.484375q-2.203125 0.484375 -4.46875 1.03125q-2.265625 0.546875 -4.671875 1.078125q-2.390625 0.53125 -5.0 0.53125q-3.625 0 -6.59375 -1.265625q-2.96875 -1.265625 -5.078125 -3.546875q-2.109375 -2.296875 -3.234375 -5.359375q-1.125 -3.0625 -1.125 -6.640625q0 -3.796875 1.609375 -7.265625q1.609375 -3.484375 4.25 -6.5q2.640625 -3.015625 6.015625 -5.484375q3.375 -2.484375 7.015625 -4.296875q3.640625 -1.828125 7.296875 -2.921875q3.65625 -1.09375 6.859375 -1.421875q1.890625 -0.203125 3.640625 0.328125q1.75 0.515625 3.03125 1.5q1.28125 0.984375 2.078125 2.546875q0.8125 1.546875 0.8125 5.171875q-2.96875 0 -4.125 -0.3125q-1.140625 -0.3125 -2.140625 -0.65625q-1.0 -0.34375 -1.953125 -0.546875q-0.953125 -0.203125 -1.875 -0.203125q-2.59375 0 -5.53125 0.78125q-2.9375 0.765625 -5.796875 2.25q-2.84375 1.46875 -5.40625 3.515625q-2.5625 2.046875 -4.5 4.453125q-1.9375 2.40625 -3.046875 5.125q-1.09375 2.703125 -1.09375 5.5q0 1.703125 0.875 3.078125q0.875 1.375 2.265625 2.34375q1.390625 0.953125 3.109375 1.46875q1.71875 0.515625 3.34375 0.515625q3.390625 0 6.890625 -0.1875q3.5 -0.1875 6.15625 -1.0625q2.65625 -0.875 4.171875 -2.578125q1.515625 -1.703125 1.515625 -4.90625q0 -0.34375 -0.140625 -1.296875q-0.046875 -0.46875 0.25 -0.171875l-13.609375 0q-1.09375 0 -1.90625 -0.484375q-0.796875 -0.5 -1.453125 -1.203125q-0.640625 -0.703125 -1.0 -1.578125q-0.34375 -0.890625 -0.34375 -1.75q0 -0.8125 0.328125 -2.203125q0.328125 -1.40625 1.90625 -1.40625q1.578125 0 2.484375 0.328125q0.921875 0.3125 1.703125 0.59375q0.78125 0.265625 1.421875 0.5q0.65625 0.21875 1.234375 0.21875q2.59375 0 5.25 -0.46875q2.65625 -0.46875 5.609375 -0.46875q1.015625 0 2.0 0.5q0.984375 0.484375 1.703125 1.171875q0.734375 0.671875 1.296875 1.6875q0.5625 1.0 0.5625 2.046875l-1.125 19.3125q0.734375 -0.859375 1.109375 -0.5625q0.375 0.296875 0.78125 0.671875q0.40625 0.359375 0.8125 0.734375q0.40625 0.359375 0.890625 0.84375q0.46875 1.609375 -0.03125 2.53125q-0.5 0.9375 -1.171875 1.546875q-0.65625 0.609375 -1.53125 1.015625q-0.859375 0.40625 -1.703125 0.40625q-2.390625 0 -3.65625 -1.421875q-1.25 -1.421875 -1.8125 -3.09375q-0.546875 -1.671875 -0.640625 -3.328125q-0.078125 -1.65625 1.34375 -2.5625zm8.578125 -9.96875q0.09375 -1.65625 0.90625 -3.625q0.8125 -1.984375 2.484375 -3.828125q1.671875 -1.859375 4.171875 -3.28125q2.5 -1.421875 5.84375 -2.015625q3.359375 -0.59375 7.53125 -0.09375q4.171875 0.484375 8.5625 3.90625q-1.609375 0 -1.609375 -0.609375l-0.078125 -0.703125q0 -1.703125 -1.0 -3.5q-1.0 -1.796875 -2.65625 -3.3125q-1.65625 -1.515625 -3.484375 -2.421875q-1.828125 -0.921875 -3.390625 -0.921875q-0.46875 0 -0.828125 0.15625q-0.359375 0.140625 -0.875 0.46875q-0.5 0.3125 -1.21875 0.703125q-0.71875 0.390625 -1.84375 0.390625q-1.8125 0 -0.34375 -1.65625q-1.0625 1.015625 -1.140625 0.9375q-0.109375 -0.109375 -0.65625 -0.5625q-0.53125 -0.46875 -0.53125 -1.3125q0 -1.796875 0.6875 -3.171875q0.6875 -1.390625 1.859375 -2.203125q1.1875 -0.8125 2.5625 -1.234375q1.375 -0.4375 2.953125 -0.4375q3.5625 0.359375 6.65625 2.109375q3.109375 1.734375 5.640625 4.328125q2.546875 2.578125 4.4375 5.90625q1.890625 3.3125 3.15625 6.875q1.265625 3.546875 1.671875 7.15625q0.5 3.796875 -0.09375 8.578125q-1.625 0 -2.0625 -0.03125q-0.421875 -0.046875 -0.953125 -0.09375q-0.515625 -0.046875 -0.921875 -0.15625l-1.1875 -0.234375q-1.890625 -4.21875 -3.765625 -6.296875q-1.859375 -2.09375 -3.671875 -3.25q-1.796875 -1.171875 -3.375 -1.625q-1.5625 -0.46875 -2.421875 -0.65625q-0.921875 0 -2.4375 0.15625q-1.5 0.140625 -3.109375 0.515625q-1.609375 0.359375 -3.234375 0.96875q-1.609375 0.609375 -2.75 1.390625q-1.140625 0.78125 -1.75 1.734375q-0.59375 0.9375 -0.59375 2.171875q0 1.125 1.09375 2.078125q1.09375 0.9375 2.96875 1.671875q1.890625 0.734375 3.921875 1.03125q2.046875 0.28125 3.25 0.28125q2.09375 0 4.140625 -0.21875q2.046875 -0.234375 4.109375 -0.546875q2.078125 -0.3125 4.171875 -0.546875q2.09375 -0.25 4.21875 -0.25q0.15625 0 0.578125 0q0.4375 0 0.859375 0.046875q0.4375 0.03125 0.75 0.03125q0.3125 0 0.765625 0q1.8125 0.671875 1.96875 1.6875q0.171875 1.0 0.171875 1.609375q0 1.4375 -1.46875 2.265625q-1.453125 0.8125 -3.109375 1.390625q-1.640625 0.578125 -3.609375 1.1875q-1.953125 0.59375 -3.765625 1.0q-1.796875 0.390625 -3.421875 0.6875q-1.609375 0.28125 -2.375 0.28125q-3.40625 0 -7.265625 -0.5625q-3.84375 -0.578125 -7.1875 -2.15625q-3.328125 -1.59375 -5.625 -4.546875q-2.28125 -2.96875 -2.28125 -7.640625zm91.40625 10.515625q0 -0.3125 0.03125 -0.703125q0.046875 -0.390625 0.046875 -0.734375q0 -0.359375 0 -0.8125l0.078125 -0.46875q0 -0.1875 0.125 -1.328125q0.125 -1.140625 0.265625 -2.375q0.15625 -1.234375 0.234375 -2.3125q0.078125 -1.09375 0.078125 -1.265625q-0.140625 -1.46875 -0.671875 -4.0q-0.515625 -2.53125 -1.5625 -4.890625q-1.03125 -2.375 -2.421875 -3.875q-1.375 -1.515625 -2.984375 -1.515625q-1.75 0 -3.796875 0.9375q-2.03125 0.921875 -3.828125 2.4375q-1.78125 1.515625 -2.90625 3.484375q-1.09375 1.734375 -1.09375 3.59375q0 0.890625 0.328125 1.875q0.34375 0.984375 0.78125 2.09375q0.4375 1.09375 0.875 2.421875q0.4375 1.3125 0.4375 2.828125q0 1.234375 -0.609375 2.859375q-0.609375 1.609375 -3.078125 1.609375q-2.390625 0 -3.578125 -2.140625q-1.171875 -2.15625 -1.9375 -4.78125q-0.765625 -2.640625 -1.578125 -5.453125q-0.796875 -2.828125 -1.90625 -5.15625q-1.109375 -2.34375 -2.515625 -3.65625q-1.40625 -1.3125 -3.484375 -1.3125q-1.6875 0 -2.984375 0.703125q-1.28125 0.703125 -2.15625 1.9375q-0.859375 1.21875 -1.375 2.84375q-0.5 1.625 -0.5 3.328125q0 3.0 0.421875 6.015625q0.4375 3.0 0.4375 6.171875q0 1.3125 -0.421875 2.9375q-0.421875 1.609375 -3.03125 1.609375q-1.40625 0 -2.34375 -0.6875q-0.9375 -0.6875 -1.46875 -1.59375q-0.53125 -0.90625 -0.796875 -1.84375q-0.265625 -0.9375 -0.5 -1.828125q0.171875 -3.359375 0.046875 -6.046875q-0.109375 -2.6875 -0.3125 -5.125q-0.1875 -2.453125 -0.390625 -4.984375q-0.1875 -2.53125 -0.1875 -5.40625q0 -0.15625 0 -0.578125q0 -0.4375 0.03125 -0.859375q0.046875 -0.4375 0.046875 -0.75q0 -0.3125 0 -0.859375q0.421875 -0.859375 1.09375 -0.78125q0.6875 0.0625 0.3125 -1.265625l1.421875 0q2.21875 0 3.296875 1.609375q0.9375 1.1875 -0.21875 1.765625q-0.359375 -1.3125 0.75 -2.15625q1.109375 -0.84375 2.21875 -1.328125q1.125 -0.484375 2.265625 -0.578125q1.15625 -0.09375 2.625 -0.09375q2.46875 0 4.515625 0.53125q2.0625 0.515625 3.765625 1.546875q1.71875 1.03125 3.125 2.71875q1.3125 1.46875 1.328125 4.21875q0.265625 -1.515625 0.28125 -0.890625q0.03125 0.625 0.03125 -0.546875q0 1.46875 0.15625 0.234375q0.171875 -1.25 1.375 -2.328125q1.21875 -1.09375 2.828125 -2.421875q1.625 -1.34375 3.4375 -2.5q1.828125 -1.15625 3.84375 -1.984375q2.015625 -0.84375 4.0625 -0.84375q3.0625 0 5.4375 1.265625q2.390625 1.25 4.203125 3.28125q1.8125 2.03125 3.0625 4.5q1.25 2.453125 2.078125 5.046875q0.828125 2.578125 1.1875 5.125q0.375 2.546875 0.375 4.703125q0 0.796875 -0.046875 2.78125q-0.03125 1.984375 -0.421875 4.171875q-0.375 2.171875 -1.453125 4.265625q-1.0625 2.078125 -3.484375 2.078125q-1.328125 0 -2.03125 -0.609375q-0.6875 -0.609375 -0.984375 -1.328125q-0.28125 -0.734375 -0.28125 -1.359375q0 -0.625 0 -1.171875zm9.0625 -18.203125q0 -4.328125 1.296875 -8.3125q1.296875 -3.984375 3.8125 -7.046875q2.515625 -3.0625 6.171875 -4.90625q3.65625 -1.859375 8.515625 -1.859375q3.015625 0.359375 5.21875 1.625q2.203125 1.265625 3.609375 3.140625q1.421875 1.859375 2.0625 4.3125q0.515625 2.234375 0.515625 4.765625q0 3.34375 -1.90625 5.96875q-1.890625 2.609375 -4.625 4.28125q-2.734375 1.671875 -5.84375 2.5625q-3.109375 0.875 -5.84375 0.875q-0.9375 0 -2.078125 0q-1.125 0 -2.28125 -0.453125q-1.140625 -0.46875 -1.921875 -1.5q-0.765625 -1.03125 -0.765625 -2.828125q0 -0.734375 0.34375 -1.546875q0.359375 -0.828125 1.4375 -1.0625q1.09375 -0.234375 2.46875 -0.125q1.171875 0.15625 2.9375 0.453125q0.671875 0 2.53125 -0.671875q1.875 -0.671875 3.859375 -1.75q2.0 -1.09375 3.234375 -2.296875q1.234375 -1.203125 1.234375 -1.984375q0 -1.296875 -0.421875 -2.53125q-0.40625 -1.234375 -1.21875 -2.15625q-0.796875 -0.9375 -1.8125 -1.453125q-1.0 -0.53125 -2.25 -0.40625q-2.375 0.203125 -4.3125 1.28125q-1.921875 1.078125 -3.296875 2.84375q-1.375 1.75 -2.140625 3.90625q-0.765625 2.15625 -0.765625 4.53125q0 2.0 0.0625 3.921875q0.078125 1.921875 0.53125 3.671875q0.453125 1.734375 1.421875 3.265625q0.96875 1.53125 2.84375 2.734375q1.890625 1.203125 4.96875 2.046875q3.078125 0.84375 7.640625 1.0625l17.421875 -1.171875q-3.546875 4.875 -5.703125 6.109375q-2.140625 1.21875 -4.4375 1.9375q-2.28125 0.703125 -4.515625 1.03125q-2.234375 0.328125 -4.234375 0.328125q-4.828125 0 -9.09375 -1.59375q-4.265625 -1.59375 -7.5625 -4.5q-3.296875 -2.921875 -5.203125 -7.109375q-1.90625 -4.1875 -1.90625 -9.390625zm65.53125 5.25q-0.671875 0.375 -2.046875 1.28125q-1.375 0.90625 -2.96875 1.75q-1.59375 0.84375 -3.40625 1.359375q-1.796875 0.5 -3.515625 0.140625q-3.46875 0 -5.90625 -1.96875q-2.421875 -1.984375 -3.84375 -4.78125q-1.421875 -2.796875 -2.015625 -5.796875q-0.578125 -3.015625 -0.578125 -5.515625q0 -2.671875 0.25 -4.8125q0.25 -2.140625 0.765625 -4.171875q0.53125 -2.03125 1.25 -4.140625q0.71875 -2.109375 1.625 -4.65625q0.28125 -1.421875 1.484375 -2.09375q1.203125 -0.671875 2.453125 -0.71875q1.25 -0.0625 2.75 0.609375q1.5 0.65625 1.09375 2.515625q0 2.125 -0.796875 4.390625q-0.796875 2.25 -1.65625 4.390625q-0.84375 2.140625 -1.546875 4.21875q-0.6875 2.078125 -0.6875 4.078125q0 1.453125 0.375 3.203125q0.390625 1.75 1.140625 3.140625q0.765625 1.390625 1.8125 2.203125q1.046875 0.8125 2.4375 0.8125q2.203125 0 4.046875 -1.109375q1.84375 -1.109375 3.453125 -2.859375q1.625 -1.765625 2.84375 -3.90625q1.234375 -2.15625 2.09375 -4.046875q0.875 -1.90625 1.3125 -3.046875q0.734375 -2.375 2.109375 -2.375q2.5625 0 3.703125 1.15625q1.0 1.125 1.0 2.84375q0 1.703125 -0.375 3.75q-0.359375 2.046875 -0.828125 4.078125q-0.46875 2.015625 -0.765625 3.921875q-0.296875 1.890625 -0.296875 3.40625q0 1.765625 0.21875 3.578125q0.234375 1.8125 0.546875 3.6875q0.3125 1.875 0.546875 3.78125q0.25 1.890625 0.25 3.796875q0 2.171875 -1.390625 3.796875q-1.375 1.609375 -3.703125 1.609375q-2.203125 0 -2.859375 -1.9375q-0.640625 -1.953125 -0.859375 -4.03125q-0.203125 -2.09375 -0.203125 -4.390625q0 -2.296875 -0.046875 -4.140625q-0.03125 -1.859375 0.125 -2.8125q0.171875 -0.953125 0.609375 -0.1875zm8.6875 -5.953125q0 -3.375 1.0625 -6.96875q1.078125 -3.59375 2.953125 -7.09375q1.875 -3.5 4.4375 -6.671875q2.578125 -3.1875 5.703125 -5.65625q3.125 -2.46875 6.625 -3.96875q3.59375 -1.453125 7.203125 -1.453125q2.765625 0 4.078125 1.984375q1.328125 1.984375 1.328125 4.203125q0 1.25 -0.453125 2.796875q-0.453125 1.546875 -1.359375 3.03125q-0.890625 1.484375 -2.203125 2.6875q-1.296875 1.1875 -4.765625 1.1875q0 -2.6875 0.296875 -3.640625q0.3125 -0.953125 0.703125 -1.625q0.390625 -0.671875 0.546875 -1.15625q0.171875 -0.5 0.171875 -1.09375q0.296875 0 -0.015625 0.09375q-0.296875 0.078125 -0.984375 0.078125q-0.15625 0 -0.625 0q-0.3125 0 -0.3125 -0.828125q-2.984375 2.046875 -6.265625 4.25q-3.265625 2.1875 -5.765625 5.015625q-2.484375 2.828125 -3.9375 6.1875q-1.4375 3.359375 -1.4375 7.15625q0 2.53125 0.46875 5.515625q0.484375 2.984375 1.609375 5.40625q1.125 2.421875 2.890625 3.90625q1.78125 1.484375 4.390625 1.484375q2.5 0 5.015625 -0.484375q2.53125 -0.5 5.15625 -1.078125q2.625 -0.59375 5.328125 -1.078125q2.71875 -0.484375 5.515625 -0.484375q0.828125 0 2.171875 0.34375q1.359375 0.328125 1.359375 2.40625q0 0.96875 -0.71875 1.859375q-0.703125 0.890625 -1.546875 1.546875q-0.84375 0.65625 -1.546875 1.015625q-0.703125 0.34375 -1.046875 0.515625l-18.421875 3.90625q-0.265625 0 -0.78125 0.03125q-0.5 0.046875 -0.875 0.046875q-2.96875 0 -5.34375 -1.203125q-2.375 -1.21875 -4.15625 -3.078125q-1.78125 -1.875 -3.015625 -4.265625q-1.21875 -2.40625 -2.0 -4.96875q-0.78125 -2.5625 -1.109375 -5.09375q-0.328125 -2.546875 -0.328125 -4.765625zm65.34375 20.765625q0.203125 -2.6875 0.359375 -4.859375q0.15625 -2.1875 0.265625 -4.34375q0.125 -2.171875 0.15625 -4.25q0.046875 -2.09375 0.046875 -3.796875q0 -2.25 -0.625 -4.25q-0.609375 -2.0 -1.734375 -3.40625q-1.109375 -1.40625 -2.765625 -2.21875q-1.65625 -0.8125 -4.0 -0.8125q-0.9375 0 -1.546875 0.125q-0.59375 0.125 -1.25 0.421875q-0.65625 0.28125 -1.484375 0.765625q-0.890625 0.59375 -2.765625 0.234375q1.359375 0.078125 1.3125 0.515625q-0.03125 0.421875 -0.03125 0.421875q0 1.609375 0.34375 4.421875q0.34375 2.796875 0.734375 5.875q0.390625 3.078125 0.78125 6.03125q0.40625 2.9375 0.40625 4.84375q0 0.15625 0 0.65625q0 0.5 -0.046875 1.046875q-0.03125 0.546875 -0.03125 0.984375q0 0.4375 0 1.015625q-0.875 2.03125 -2.0 2.5q-1.125 0.453125 -2.25 0.453125q-2.21875 0.375 -2.9375 -1.875q-0.71875 -2.265625 -0.96875 -5.1875q-0.234375 -2.921875 -0.4375 -6.90625q-0.1875 -4.0 -0.546875 -8.734375q-0.34375 -4.734375 -1.0 -10.015625q-0.65625 -5.296875 -1.875 -10.796875q-0.625 -2.1875 -0.984375 -3.71875q-0.34375 -1.53125 -0.671875 -2.75q-0.3125 -1.234375 -0.546875 -2.546875q-0.234375 -1.328125 -0.578125 -3.28125l0 -0.453125q0 -1.171875 0.8125 -1.734375q0.796875 -0.5625 1.453125 -0.859375q0.65625 -0.3125 1.328125 -0.46875q0.6875 -0.15625 2.328125 -0.15625q1.90625 5.0 2.8125 7.734375q0.90625 2.734375 1.46875 4.75q0.5625 2.0 0.8125 3.390625q0.25 1.390625 0.40625 2.6875q0.171875 1.296875 0.25 2.625q0.078125 1.328125 -0.375 1.328125q2.578125 -2.09375 6.3125 -2.359375q3.734375 -0.265625 6.6875 1.125q2.953125 1.390625 5.0625 4.140625q2.109375 2.75 3.421875 6.0625q1.328125 3.296875 2.015625 6.953125q0.6875 3.640625 0.890625 7.0625q0.203125 3.40625 -0.171875 6.375q-0.375 2.953125 -1.28125 5.125q-0.90625 2.171875 -3.0 2.65625q-2.078125 0.484375 -4.5625 -2.546875zm10.125 -12.375q0.09375 -1.65625 0.90625 -3.625q0.8125 -1.984375 2.484375 -3.828125q1.671875 -1.859375 4.171875 -3.28125q2.5 -1.421875 5.84375 -2.015625q3.359375 -0.59375 7.53125 -0.09375q4.171875 0.484375 8.5625 3.90625q-1.609375 0 -1.609375 -0.609375l-0.078125 -0.703125q0 -1.703125 -1.0 -3.5q-1.0 -1.796875 -2.65625 -3.3125q-1.65625 -1.515625 -3.484375 -2.421875q-1.828125 -0.921875 -3.390625 -0.921875q-0.46875 0 -0.828125 0.15625q-0.359375 0.140625 -0.875 0.46875q-0.5 0.3125 -1.21875 0.703125q-0.71875 0.390625 -1.84375 0.390625q-1.8125 0 -0.34375 -1.65625q-1.0625 1.015625 -1.140625 0.9375q-0.109375 -0.109375 -0.65625 -0.5625q-0.53125 -0.46875 -0.53125 -1.3125q0 -1.796875 0.6875 -3.171875q0.6875 -1.390625 1.859375 -2.203125q1.1875 -0.8125 2.5625 -1.234375q1.375 -0.4375 2.953125 -0.4375q3.5625 0.359375 6.65625 2.109375q3.109375 1.734375 5.640625 4.328125q2.546875 2.578125 4.4375 5.90625q1.890625 3.3125 3.15625 6.875q1.265625 3.546875 1.671875 7.15625q0.5 3.796875 -0.09375 8.578125q-1.625 0 -2.0625 -0.03125q-0.421875 -0.046875 -0.953125 -0.09375q-0.515625 -0.046875 -0.921875 -0.15625l-1.1875 -0.234375q-1.890625 -4.21875 -3.765625 -6.296875q-1.859375 -2.09375 -3.671875 -3.25q-1.796875 -1.171875 -3.375 -1.625q-1.5625 -0.46875 -2.421875 -0.65625q-0.921875 0 -2.4375 0.15625q-1.5 0.140625 -3.109375 0.515625q-1.609375 0.359375 -3.234375 0.96875q-1.609375 0.609375 -2.75 1.390625q-1.140625 0.78125 -1.75 1.734375q-0.59375 0.9375 -0.59375 2.171875q0 1.125 1.09375 2.078125q1.09375 0.9375 2.96875 1.671875q1.890625 0.734375 3.921875 1.03125q2.046875 0.28125 3.25 0.28125q2.09375 0 4.140625 -0.21875q2.046875 -0.234375 4.109375 -0.546875q2.078125 -0.3125 4.171875 -0.546875q2.09375 -0.25 4.21875 -0.25q0.15625 0 0.578125 0q0.4375 0 0.859375 0.046875q0.4375 0.03125 0.75 0.03125q0.3125 0 0.765625 0q1.8125 0.671875 1.96875 1.6875q0.171875 1.0 0.171875 1.609375q0 1.4375 -1.46875 2.265625q-1.453125 0.8125 -3.109375 1.390625q-1.640625 0.578125 -3.609375 1.1875q-1.953125 0.59375 -3.765625 1.0q-1.796875 0.390625 -3.421875 0.6875q-1.609375 0.28125 -2.375 0.28125q-3.40625 0 -7.265625 -0.5625q-3.84375 -0.578125 -7.1875 -2.15625q-3.328125 -1.59375 -5.625 -4.546875q-2.28125 -2.96875 -2.28125 -7.640625zm41.25 -17.21875q0 -1.84375 1.171875 -2.296875q1.1875 -0.453125 2.125 -0.453125q1.25 0 1.8125 0.6875q0.5625 0.671875 0.65625 1.0625q0.09375 0.375 -0.328125 0.625q-0.421875 0.25 -0.421875 -0.734375q0.671875 0 2.046875 -0.75q1.375 -0.765625 3.25 -1.796875q1.875 -1.046875 4.140625 -1.984375q2.265625 -0.9375 4.625 -0.9375q3.125 0 5.671875 1.578125q2.5625 1.5625 4.46875 4.03125q1.921875 2.453125 3.234375 5.40625q1.3125 2.953125 2.203125 6.0q0.890625 3.046875 1.296875 5.9375q0.40625 2.890625 0.40625 5.03125q0 0.765625 -0.125 2.265625q-0.125 1.484375 -0.4375 3.078125q-0.296875 1.578125 -1.25 3.171875q-0.9375 1.578125 -2.8125 1.578125q-0.234375 0 -0.75 -0.046875q-0.515625 -0.0625 -1.078125 -0.21875q-0.546875 -0.171875 -1.328125 -0.609375q-0.765625 -0.4375 -0.765625 -1.8125q0.6875 -5.90625 0.015625 -10.96875q-0.671875 -5.078125 -2.140625 -8.8125q-1.46875 -3.75 -3.375 -5.71875q-1.90625 -1.96875 -3.78125 -1.96875q-2.125 0 -3.9375 0.671875q-1.8125 0.671875 -3.125 1.921875q-1.3125 1.25 -2.078125 3.046875q-0.765625 1.796875 -0.765625 4.046875q0 2.25 0.453125 4.625q0.453125 2.359375 1.03125 4.828125q0.59375 2.453125 1.078125 5.046875q0.484375 2.59375 0.484375 6.90625q-4.625 0 -6.46875 -2.21875q-1.828125 -2.21875 -2.796875 -5.25q-0.96875 -3.03125 -1.5 -6.640625q-0.515625 -3.625 -0.71875 -7.078125q-0.1875 -3.46875 -0.1875 -6.5q0 -3.03125 0 -4.75zm24.0625 52.421875q-0.40625 -1.421875 0.125 -2.734375q0.53125 -1.296875 1.46875 -2.125q0.9375 -0.8125 2.25 -1.09375q1.296875 -0.265625 2.40625 0.5q1.09375 0.765625 1.28125 2.265625q0.1875 1.515625 -0.46875 3.265625q0 0.78125 1.15625 2.078125q1.140625 1.3125 3.265625 2.53125q2.140625 1.234375 4.78125 2.296875q2.65625 1.0625 5.15625 1.8125q2.5 0.765625 4.46875 1.140625q1.71875 0.359375 2.484375 0.359375q1.40625 0 2.421875 -0.75q1.015625 -0.75 1.84375 -2.15625q0.84375 -1.40625 1.375 -3.328125q0.546875 -1.90625 0.84375 -3.890625q0.296875 -1.96875 0.375 -3.859375q0.078125 -1.890625 0.078125 -3.1875q0 -0.5625 -0.125 -2.203125q-0.109375 -1.640625 -0.34375 -3.796875q-0.21875 -2.15625 -0.53125 -4.46875q-0.3125 -2.3125 -0.6875 -4.265625q-0.375 -1.953125 -0.234375 -3.078125q0.140625 -1.140625 0.140625 -0.140625q-0.4375 0 -1.3125 0.390625q-0.875 0.390625 -2.03125 0.953125q-1.140625 0.546875 -2.5 1.09375q-1.34375 0.53125 -2.75 0.53125q-2.53125 0 -4.9375 -1.0625q-2.40625 -1.078125 -4.15625 -2.765625q-1.734375 -1.703125 -2.8125 -4.03125q-1.078125 -2.34375 -1.078125 -4.890625q0 -3.734375 1.46875 -7.59375q1.46875 -3.859375 4.03125 -7.046875q2.5625 -3.203125 6.125 -5.265625q3.578125 -2.0625 7.90625 -2.0625q3.65625 1.015625 5.65625 4.171875q2.0 3.15625 3.015625 7.421875q1.03125 4.25 1.46875 9.296875q0.4375 5.046875 0.59375 10.234375q0.15625 5.171875 0.265625 10.09375q0.125 4.9375 0.59375 9.015625q0 1.953125 -0.203125 4.484375q-0.203125 2.546875 -0.6875 5.21875q-0.484375 2.671875 -1.359375 5.375q-0.875 2.703125 -2.359375 4.9375q-1.484375 2.234375 -3.75 3.65625q-2.265625 1.4375 -5.25 1.4375q-2.171875 0 -5.15625 -0.5q-2.96875 -0.484375 -6.171875 -1.546875q-3.203125 -1.046875 -6.390625 -2.59375q-3.171875 -1.546875 -5.765625 -3.609375q-2.609375 -2.046875 -4.296875 -4.765625q-1.6875 -2.703125 -1.6875 -5.75zm19.71875 -35.9375q0 1.140625 0.34375 2.15625q0.34375 1.015625 0.953125 1.78125q0.609375 0.75 1.46875 1.171875q0.875 0.421875 1.984375 0.421875q3.421875 0 5.0625 -1.234375q1.65625 -1.25 2.3125 -3.21875q0.65625 -1.96875 0.65625 -4.328125q-0.078125 -2.6875 -0.234375 -4.890625q0 -1.03125 -0.140625 -1.9375q-0.125 -0.90625 -0.4375 -1.515625q-0.296875 -0.625 -0.734375 -0.90625q-0.421875 -0.296875 -1.171875 -0.296875q-2.078125 0 -3.9375 1.234375q-1.84375 1.21875 -3.21875 3.140625q-1.359375 1.921875 -2.140625 4.21875q-0.765625 2.28125 -0.765625 4.203125zm21.53125 -6.953125q0 -4.328125 1.296875 -8.3125q1.296875 -3.984375 3.8125 -7.046875q2.515625 -3.0625 6.171875 -4.90625q3.65625 -1.859375 8.515625 -1.859375q3.015625 0.359375 5.21875 1.625q2.203125 1.265625 3.609375 3.140625q1.421875 1.859375 2.0625 4.3125q0.515625 2.234375 0.515625 4.765625q0 3.34375 -1.90625 5.96875q-1.890625 2.609375 -4.625 4.28125q-2.734375 1.671875 -5.84375 2.5625q-3.109375 0.875 -5.84375 0.875q-0.9375 0 -2.078125 0q-1.125 0 -2.28125 -0.453125q-1.140625 -0.46875 -1.921875 -1.5q-0.765625 -1.03125 -0.765625 -2.828125q0 -0.734375 0.34375 -1.546875q0.359375 -0.828125 1.4375 -1.0625q1.09375 -0.234375 2.46875 -0.125q1.171875 0.15625 2.9375 0.453125q0.671875 0 2.53125 -0.671875q1.875 -0.671875 3.859375 -1.75q2.0 -1.09375 3.234375 -2.296875q1.234375 -1.203125 1.234375 -1.984375q0 -1.296875 -0.421875 -2.53125q-0.40625 -1.234375 -1.21875 -2.15625q-0.796875 -0.9375 -1.8125 -1.453125q-1.0 -0.53125 -2.25 -0.40625q-2.375 0.203125 -4.3125 1.28125q-1.921875 1.078125 -3.296875 2.84375q-1.375 1.75 -2.140625 3.90625q-0.765625 2.15625 -0.765625 4.53125q0 2.0 0.0625 3.921875q0.078125 1.921875 0.53125 3.671875q0.453125 1.734375 1.421875 3.265625q0.96875 1.53125 2.84375 2.734375q1.890625 1.203125 4.96875 2.046875q3.078125 0.84375 7.640625 1.0625l17.421875 -1.171875q-3.546875 4.875 -5.703125 6.109375q-2.140625 1.21875 -4.4375 1.9375q-2.28125 0.703125 -4.515625 1.03125q-2.234375 0.328125 -4.234375 0.328125q-4.828125 0 -9.09375 -1.59375q-4.265625 -1.59375 -7.5625 -4.5q-3.296875 -2.921875 -5.203125 -7.109375q-1.90625 -4.1875 -1.90625 -9.390625z" fill-rule="nonzero"/></g></svg>